<?xml version="1.0" encoding="UTF-8"?>
<svg xmlns="http://www.w3.org/2000/svg" version="1.1" viewBox="0 0 483.6 270">
  <!-- Generator: Adobe Illustrator 29.7.1, SVG Export Plug-In . SVG Version: 2.1.1 Build 8)  -->
  <g id="frame1">
    <path d="M310.46,85.18c-3.04-6.82-17.45-37.16-52.11-52.94-4.29-1.95-20.77-9.09-43.41-9.18-11.3-.05-31.2,1.67-51.5,12.63-.18.1-.34.18-.45.24-8.35,4.57-30.42,17.04-43.05,44.14-12.75,27.36-7.94,52.55-6,61.99,8.89,43.21,41.87,65.73,47.35,69.34,2.7,1.78,43.42,27.71,92.51,13.87,11.03-3.11,36.23-10.21,52.12-33.7,12.62-18.66,13.09-38.38,13.47-54.61.28-12.01.52-30.61-8.93-51.8ZM301.19,153.2c-12.93,21.26-33.68,28.5-50.89,34.5-33.44,11.66-62.07,6.01-78.16,2.84-17.39-3.43-27.11-5.35-36.43-13.83-18.33-16.67-18.52-43.61-18.6-55.26-.06-8.22,0-22.65,7.46-38.84,13.68-29.66,41.29-41.55,53.19-46.68,8.2-3.53,23.47-9.91,44.3-9.27,22.21.68,38,8.93,41.85,11.04,7.09,3.87,34.99,20.39,44.02,55.02,1.72,6.6,9.01,34.57-6.75,60.48Z" style="fill: #f7f7f7;"/>
  </g>
  <g id="frame2">
    <path d="M106.98,28.96c-.99-.8-26.08,21.64-38.18,54.64-5.42,14.77-6.55,26.44-6.55,30.83,0,0-.65,12.38,1.68,24.32,6.06,31.03,31.82,54.28,36.31,58.21,33.65,29.51,76.58,30.11,121.23,30.73,51.34.72,89.55,1.25,120.24-26.64,26.91-24.46,32.89-57.02,35.76-72.67,8.07-43.98-3.45-94.46-21.54-99.43-2.26-.62-8.73-1.66-9.43,0-.84,2.02,5.33,1.72,9.03,4.6,19.89,15.49,15.6,62.22,14.65,67.91-6.94,41.91-40.28,65.96-47.24,70.98-29.27,21.12-59.36,23.31-87.93,25.02-52.85,3.16-119.5,11.93-149.79-27.58-14.23-18.56-16.12-41.73-16.42-46.47-1.56-24.18,7.45-42.95,14.53-57.7,11.58-24.14,24.38-36.19,23.66-36.77Z" style="fill: #d3d6cc;"/>
  </g>
  <g id="frame3">
    <path d="M10.46,79.51c-.87.32,5.13,43.97,29.49,78.13,39.96,56.03,113.41,64.18,174.64,70.98,65.84,7.31,133.41,14.81,175.18-27.07,4.17-4.18,1.76-2.52,47.46-90.87,3.95-7.64,13.65-26.36,6.64-36.27-1.24-1.75-4.07-4.75-5.62-4.09-2.53,1.08,2.43,7.24,3.06,11.74,1.79,12.79-6.89,29.25-24.71,52.94-29.09,38.67-43.64,58-62.89,65.03-8.92,3.26-22.84,3.4-50.32,3.56-36.28.21-50.69-1.66-79.57-2.54-66.88-2.04-67,5.6-98.05-1.02-21.71-4.63-49.26-10.5-69.63-33.2-9.48-10.57-15.8-23.39-28.44-49.02-11.5-23.33-16.71-38.49-17.24-38.3Z" style="fill: #a7aaa0;"/>
  </g>
  <g id="frame4">
    <path d="M477.72,157.64c1.37,1.26-20.61,40.09-61.11,61.26-20.95,10.95-38.57,12.85-65.73,15.77-31.17,3.36-42.46.27-118.87-4.04-25.81-1.46-33.92-1.66-75.98-4.05-58.11-3.29-67.61-4.33-82.37-8.68-56.36-16.61-59.94-40.92-65.36-52.09-2.23-4.59-3.49-7.32-3.99-10.72-.3-2.05,7.97,15.03,16.56,25.53,14.35,17.56,36.72,21.34,61.58,25.55,8.25,1.4,25.29,3.82,58.18,2.54,52.61-2.05,53.54-9.98,86.21-8.67,15.06.6,36.45,5.31,79.21,14.74,29.38,6.47,37.85,9.34,53.63,9.3,14.46-.04,38.32-.13,60.19-14.34,4.6-2.99,3.57-3,32.68-29.62,16.58-15.16,24.87-22.74,25.17-22.47Z" style="fill: #999e90;"/>
  </g>
  <g id="frame5">
    <path d="M4.35,225.83c.12,1.09,31.72-2.95,80.92-3.04,18.14-.03,27.48-.02,40.65,1.41,21.2,2.31,28.16,5.58,47.24,6.8,16.19,1.04,22.67-.58,38.64-1.3,26.65-1.2,37.89,1.99,71.36,5.14,25.97,2.45,45.92,2.84,85.82,3.63,0,0,57.27,1.13,94.45-1.46,4.35-.3,17.39-1.21,13.04-.91h0s-17.61-2.43-28.98-3.64c-28.79-3.05-30.24.42-51.68-2.9-13.7-2.12-13.59-3.61-28.42-5.57-16.88-2.23-21.98-.96-32.14-2.43-20.01-2.9-31.66-15.42-40.45-17.15-75.06-14.81-95.55-6.03-183.31,9.19-6.79,1.18-24.06,1.2-47.51,3.56-31.62,3.18-59.74,7.63-59.63,8.66Z" style="fill: #8e918a;"/>
  </g>
</svg>